<svg width="84" height="84" viewBox="0 0 84 84" fill="none" xmlns="http://www.w3.org/2000/svg">
<path d="M80.169 71.3291L56.257 47.4211L47.421 56.2571L71.329 80.1671C73.771 82.6081 77.729 82.6111 80.172 80.1691C82.611 77.7301 82.609 73.7701 80.169 71.3291Z" stroke="black" stroke-width="3" stroke-miterlimit="10" stroke-linecap="round" stroke-linejoin="round"/>
<path d="M7.124 31.8731C0.291 25.0401 0.293 13.9611 7.124 7.12613C13.959 0.292126 25.04 0.291125 31.874 7.12413C33.554 8.80412 34.82 10.7381 35.673 12.8031C35.673 12.8031 44.704 34.6091 51.841 51.8411C34.609 44.7011 12.802 35.6731 12.802 35.6731C10.738 34.8201 8.802 33.5531 7.124 31.8731Z" stroke="black" stroke-width="3" stroke-miterlimit="10" stroke-linecap="round" stroke-linejoin="round"/>
<path d="M13.312 25.6861C6.479 18.8531 3.71 10.5411 7.124 7.12611C10.543 3.71011 18.852 6.47811 25.687 13.3121C27.365 14.9911 28.8 16.7581 29.955 18.5221C29.955 18.5221 42.18 37.1321 51.841 51.8411C37.132 42.1811 18.521 29.9541 18.521 29.9541C16.758 28.7991 14.991 27.3651 13.312 25.6861Z" stroke="black" stroke-width="3" stroke-miterlimit="10" stroke-linecap="round" stroke-linejoin="round"/>
<path d="M7.12399 7.12613L51.839 51.8391L7.12399 7.12613Z" stroke="black" stroke-width="3" stroke-miterlimit="10" stroke-linecap="round" stroke-linejoin="round"/>
</svg>
